# Blender 4.1.1
# www.blender.org
mtllib Mesa.mtl
o Box001
v -7.000000 3.500000 3.500000
v -7.000000 3.500000 -3.500000
v 7.000000 3.500000 -3.500000
v 7.000000 3.500000 3.500000
v -7.000000 3.850001 3.500000
v 7.000000 3.850001 3.500000
v 7.000000 3.850000 -3.500000
v -7.000000 3.850000 -3.500000
vn -0.5774 -0.5774 0.5774
vn -0.5774 -0.5774 -0.5774
vn 0.5774 -0.5774 -0.5774
vn 0.5774 -0.5774 0.5774
vn -0.5774 0.5774 0.5774
vn 0.5774 0.5774 0.5774
vn 0.5774 0.5774 -0.5774
vn -0.5774 0.5774 -0.5774
vt 1.000000 0.000000
vt 1.000000 1.000000
vt 0.000000 1.000000
vt 0.000000 0.000000
s 1
usemtl 01___Default
f 1/1/1 2/2/2 3/3/3 4/4/4
f 5/4/5 6/1/6 7/2/7 8/3/8
f 1/4/1 4/1/4 6/2/6 5/3/5
f 4/4/4 3/1/3 7/2/7 6/3/6
f 3/4/3 2/1/2 8/2/8 7/3/7
f 2/4/2 1/1/1 5/2/5 8/3/8
o Box002
v -7.000000 1.750001 8.750001
v -7.000000 1.750000 5.250000
v 7.000000 1.750000 5.250000
v 7.000000 1.750001 8.750001
v -7.000000 2.100001 8.750001
v 7.000000 2.100001 8.750001
v 7.000000 2.100001 5.250000
v -7.000000 2.100001 5.250000
vn -0.5774 -0.5774 0.5774
vn -0.5774 -0.5774 -0.5774
vn 0.5774 -0.5774 -0.5774
vn 0.5774 -0.5774 0.5774
vn -0.5774 0.5774 0.5774
vn 0.5774 0.5774 0.5774
vn 0.5774 0.5774 -0.5774
vn -0.5774 0.5774 -0.5774
vt 1.000000 0.000000
vt 1.000000 1.000000
vt 0.000000 1.000000
vt 0.000000 0.000000
s 1
usemtl 01___Default
f 9/5/9 10/6/10 11/7/11 12/8/12
f 13/8/13 14/5/14 15/6/15 16/7/16
f 9/8/9 12/5/12 14/6/14 13/7/13
f 12/8/12 11/5/11 15/6/15 14/7/14
f 11/8/11 10/5/10 16/6/16 15/7/15
f 10/8/10 9/5/9 13/6/13 16/7/16
o Box003
v -7.000000 1.750000 -5.250000
v -7.000000 1.749999 -8.750001
v 7.000000 1.749999 -8.750001
v 7.000000 1.750000 -5.250000
v -7.000000 2.100000 -5.250000
v 7.000000 2.100000 -5.250000
v 7.000000 2.099999 -8.750001
v -7.000000 2.099999 -8.750001
vn -0.5774 -0.5774 0.5774
vn -0.5774 -0.5774 -0.5774
vn 0.5774 -0.5774 -0.5774
vn 0.5774 -0.5774 0.5774
vn -0.5774 0.5774 0.5774
vn 0.5774 0.5774 0.5774
vn 0.5774 0.5774 -0.5774
vn -0.5774 0.5774 -0.5774
vt 1.000000 0.000000
vt 1.000000 1.000000
vt 0.000000 1.000000
vt 0.000000 0.000000
s 1
usemtl 01___Default
f 17/9/17 18/10/18 19/11/19 20/12/20
f 21/12/21 22/9/22 23/10/23 24/11/24
f 17/12/17 20/9/20 22/10/22 21/11/21
f 20/12/20 19/9/19 23/10/23 22/11/22
f 19/12/19 18/9/18 24/10/24 23/11/23
f 18/12/18 17/9/17 21/10/21 24/11/24
o Box005
v 3.850000 0.000000 0.350000
v 3.850000 -0.000000 -0.350000
v 4.550000 -0.000000 -0.350000
v 4.550000 0.000000 0.350000
v 3.850000 3.500000 0.350000
v 4.550000 3.500000 0.350000
v 4.550000 3.500000 -0.350000
v 3.850000 3.500000 -0.350000
vn -0.5774 -0.5774 0.5774
vn -0.5774 -0.5774 -0.5774
vn 0.5774 -0.5774 -0.5774
vn 0.5774 -0.5774 0.5774
vn -0.5774 0.5774 0.5774
vn 0.5774 0.5774 0.5774
vn 0.5774 0.5774 -0.5774
vn -0.5774 0.5774 -0.5774
vt 0.000000 -0.000000
vt 1.000000 0.000000
vt 1.000000 1.000000
vt -0.000000 1.000000
s 1
usemtl 01___Default
f 25/13/25 26/14/26 27/15/27 28/16/28
f 29/16/29 30/13/30 31/14/31 32/15/32
f 25/16/25 28/13/28 30/14/30 29/15/29
f 28/16/28 27/13/27 31/14/31 30/15/30
f 27/16/27 26/13/26 32/14/32 31/15/31
f 26/16/26 25/13/25 29/14/29 32/15/32
o Box007
v 4.900001 0.000001 7.350000
v 4.900001 0.000001 6.650001
v 5.600000 0.000001 6.650001
v 5.600000 0.000001 7.350000
v 4.900001 1.750001 7.350000
v 5.600000 1.750001 7.350000
v 5.600000 1.750001 6.650001
v 4.900001 1.750001 6.650001
vn -0.5774 -0.5774 0.5774
vn -0.5774 -0.5774 -0.5774
vn 0.5774 -0.5774 -0.5774
vn 0.5774 -0.5774 0.5774
vn -0.5774 0.5774 0.5774
vn 0.5774 0.5774 0.5774
vn 0.5774 0.5774 -0.5774
vn -0.5774 0.5774 -0.5774
vt 0.015100 0.015300
vt 0.984700 0.015100
vt 0.984900 0.984700
vt 0.015300 0.984900
s 1
usemtl 01___Default
f 33/17/33 34/18/34 35/19/35 36/20/36
f 37/20/37 38/17/38 39/18/39 40/19/40
f 33/20/33 36/17/36 38/18/38 37/19/37
f 36/20/36 35/17/35 39/18/39 38/19/38
f 35/20/35 34/17/34 40/18/40 39/19/39
f 34/20/34 33/17/33 37/18/37 40/19/40
o Box010
v -4.550000 0.000000 0.350000
v -4.550000 -0.000000 -0.350000
v -3.850000 -0.000000 -0.350000
v -3.850000 0.000000 0.350000
v -4.550000 3.500000 0.350000
v -3.850000 3.500000 0.350000
v -3.850000 3.500000 -0.350000
v -4.550000 3.500000 -0.350000
vn -0.5774 -0.5774 0.5774
vn -0.5774 -0.5774 -0.5774
vn 0.5774 -0.5774 -0.5774
vn 0.5774 -0.5774 0.5774
vn -0.5774 0.5774 0.5774
vn 0.5774 0.5774 0.5774
vn 0.5774 0.5774 -0.5774
vn -0.5774 0.5774 -0.5774
vt 0.000000 -0.000000
vt 1.000000 0.000000
vt 1.000000 1.000000
vt -0.000000 1.000000
s 1
usemtl 01___Default
f 41/21/41 42/22/42 43/23/43 44/24/44
f 45/24/45 46/21/46 47/22/47 48/23/48
f 41/24/41 44/21/44 46/22/46 45/23/45
f 44/24/44 43/21/43 47/22/47 46/23/46
f 43/24/43 42/21/42 48/22/48 47/23/47
f 42/24/42 41/21/41 45/22/45 48/23/48
o Box011
v -5.600000 0.000001 7.350000
v -5.600000 0.000001 6.650001
v -4.900001 0.000001 6.650001
v -4.900001 0.000001 7.350000
v -5.600000 1.750001 7.350000
v -4.900001 1.750001 7.350000
v -4.900001 1.750001 6.650001
v -5.600000 1.750001 6.650001
vn -0.5774 -0.5774 0.5774
vn -0.5774 -0.5774 -0.5774
vn 0.5774 -0.5774 -0.5774
vn 0.5774 -0.5774 0.5774
vn -0.5774 0.5774 0.5774
vn 0.5774 0.5774 0.5774
vn 0.5774 0.5774 -0.5774
vn -0.5774 0.5774 -0.5774
vt 0.015100 0.015300
vt 0.984700 0.015100
vt 0.984900 0.984700
vt 0.015300 0.984900
s 1
usemtl 01___Default
f 49/25/49 50/26/50 51/27/51 52/28/52
f 53/28/53 54/25/54 55/26/55 56/27/56
f 49/28/49 52/25/52 54/26/54 53/27/53
f 52/28/52 51/25/51 55/26/55 54/27/54
f 51/28/51 50/25/50 56/26/56 55/27/55
f 50/28/50 49/25/49 53/26/53 56/27/56
o Box012
v 4.900001 -0.000001 -6.650001
v 4.900001 -0.000001 -7.350000
v 5.600000 -0.000001 -7.350000
v 5.600000 -0.000001 -6.650001
v 4.900001 1.750000 -6.650001
v 5.600000 1.750000 -6.650001
v 5.600000 1.750000 -7.350000
v 4.900001 1.750000 -7.350000
vn -0.5774 -0.5774 0.5774
vn -0.5774 -0.5774 -0.5774
vn 0.5774 -0.5774 -0.5774
vn 0.5774 -0.5774 0.5774
vn -0.5774 0.5774 0.5774
vn 0.5774 0.5774 0.5774
vn 0.5774 0.5774 -0.5774
vn -0.5774 0.5774 -0.5774
vt 0.015100 0.015300
vt 0.984700 0.015100
vt 0.984900 0.984700
vt 0.015300 0.984900
s 1
usemtl 01___Default
f 57/29/57 58/30/58 59/31/59 60/32/60
f 61/32/61 62/29/62 63/30/63 64/31/64
f 57/32/57 60/29/60 62/30/62 61/31/61
f 60/32/60 59/29/59 63/30/63 62/31/62
f 59/32/59 58/29/58 64/30/64 63/31/63
f 58/32/58 57/29/57 61/30/61 64/31/64
o Box013
v -5.600000 -0.000001 -6.650001
v -5.600000 -0.000001 -7.350000
v -4.900001 -0.000001 -7.350000
v -4.900001 -0.000001 -6.650001
v -5.600000 1.750000 -6.650001
v -4.900001 1.750000 -6.650001
v -4.900001 1.750000 -7.350000
v -5.600000 1.750000 -7.350000
vn -0.5774 -0.5774 0.5774
vn -0.5774 -0.5774 -0.5774
vn 0.5774 -0.5774 -0.5774
vn 0.5774 -0.5774 0.5774
vn -0.5774 0.5774 0.5774
vn 0.5774 0.5774 0.5774
vn 0.5774 0.5774 -0.5774
vn -0.5774 0.5774 -0.5774
vt 0.015100 0.015300
vt 0.984700 0.015100
vt 0.984900 0.984700
vt 0.015300 0.984900
s 1
usemtl 01___Default
f 65/33/65 66/34/66 67/35/67 68/36/68
f 69/36/69 70/33/70 71/34/71 72/35/72
f 65/36/65 68/33/68 70/34/70 69/35/69
f 68/36/68 67/33/67 71/34/71 70/35/70
f 67/36/67 66/33/66 72/34/72 71/35/71
f 66/36/66 65/33/65 69/34/69 72/35/72
