# Blender 4.0.2
# www.blender.org
mtllib pisoo.mtl
o pavimento
v -0.165242 0.000000 0.999987
v -0.291604 0.000000 0.999987
v -0.165242 0.000000 0.130706
v -0.291604 0.000000 0.130706
v -0.165242 0.000000 0.045505
v -0.291604 0.000000 0.045505
v -0.165242 0.000000 0.928161
v -0.291604 0.000000 0.928161
vn -0.0000 1.0000 -0.0000
vt -1.401630 -0.515029
vt 3.063006 -0.515030
vt 3.540014 -0.515031
vt 3.540014 0.514796
vt 3.063006 0.514796
vt -1.401630 0.514796
vt -1.803756 0.514796
vt -1.803756 -0.515029
s 0
usemtl pavimento
f 7/1/1 3/2/1 5/3/1 6/4/1 4/5/1 8/6/1 2/7/1 1/8/1
o Plane.001
v -0.291604 0.000000 0.130706
v -0.352201 0.000000 0.999987
v -0.352201 0.000000 0.130706
v -0.165242 -0.000000 -0.802530
v -0.291604 -0.000000 -0.802530
v -0.352201 -0.000000 -0.802530
v -0.165242 0.000000 0.045505
v -0.291604 0.000000 0.045505
v -0.352201 0.000000 0.045505
v -0.165242 -0.000000 -0.012283
v -0.291604 -0.000000 -0.012283
v -0.352201 -0.000000 -0.012283
v 1.037144 -0.000000 -0.802530
v 1.037144 0.000000 0.045505
v 1.037144 -0.000000 -0.012283
v 0.966971 -0.000000 -0.802530
v 0.966971 0.000000 0.045505
v 0.966971 -0.000000 -0.012283
v -1.015599 0.000000 0.130706
v -1.015599 0.000000 0.045505
v -1.015599 -0.000000 -0.012283
v -0.942677 0.000000 0.999987
v -0.942677 0.000000 0.130706
v -0.942677 0.000000 0.045505
v -0.942677 -0.000000 -0.012283
v -0.165242 -0.000000 -0.730859
v -0.291604 -0.000000 -0.730859
v -0.352201 -0.000000 -0.730859
v 1.037144 -0.000000 -0.730859
v 0.966971 -0.000000 -0.730859
v -1.015599 -0.000000 -0.730859
v -0.942677 -0.000000 -0.730859
v -0.291604 -0.000000 -0.666509
v -0.352201 -0.000000 -0.666509
v 1.037144 -0.000000 -0.666509
v 0.966971 -0.000000 -0.666509
v -1.015599 -0.000000 -0.666509
v -0.942677 -0.000000 -0.666509
v -0.291604 0.000000 0.928161
v -0.352201 0.000000 0.928161
v -1.015599 0.000000 0.928161
v -0.942677 0.000000 0.928161
vn -0.0000 1.0000 -0.0000
vt -4.233535 -16.833273
vt -3.465298 -16.833277
vt -3.465294 -1.668243
vt -4.233531 -1.668242
vt -3.465291 14.715971
vt -1.863284 14.715971
vt -1.863282 16.078924
vt -3.465290 16.078924
vt -4.233529 14.715971
vt -4.233527 16.078924
vt -3.465293 -0.047984
vt -4.233531 -0.047984
vt -11.719496 -0.047982
vt -4.233531 1.050965
vt -11.719496 1.050967
vt -3.465293 1.050965
vt -1.863286 -0.047984
vt -1.863285 1.050965
vt 12.490761 -0.047986
vt 13.380402 -0.047986
vt 13.380402 1.050963
vt 12.490761 1.050963
vt 12.490764 14.715969
vt 13.380404 14.715969
vt 13.380404 16.078920
vt 12.490764 16.078920
vt -12.643991 -0.047982
vt -12.643991 1.050967
vt -12.643991 -1.668240
vt -11.719498 -1.668240
vt -12.643997 -16.833271
vt -11.719501 -16.833271
vt -12.643991 13.492258
vt -11.719495 13.492258
vt -11.719495 14.715976
vt -12.643991 14.715976
vt 12.490764 13.492256
vt 13.380404 13.492253
vt -4.233529 13.492258
vt -3.465291 13.492256
vt -11.719501 -18.199175
vt -4.233538 -18.199179
s 0
usemtl CAMINO
f 48/9/2 47/10/2 9/11/2 11/12/2
f 35/13/2 34/14/2 12/15/2 13/16/2
f 36/17/2 35/13/2 13/16/2 14/18/2
f 11/12/2 9/11/2 16/19/2 17/20/2
f 32/21/2 17/20/2 20/22/2 33/23/2
f 17/20/2 16/19/2 19/24/2 20/22/2
f 16/19/2 15/25/2 18/26/2 19/24/2
f 25/27/2 22/28/2 23/29/2 26/30/2
f 38/31/2 37/32/2 21/33/2 24/34/2
f 34/14/2 38/31/2 24/34/2 12/15/2
f 15/25/2 25/27/2 26/30/2 18/26/2
f 28/35/2 32/21/2 33/23/2 29/36/2
f 27/37/2 31/38/2 32/21/2 28/35/2
f 49/39/2 50/40/2 31/38/2 27/37/2
f 45/41/2 46/42/2 40/43/2 39/44/2
f 44/45/2 43/46/2 37/32/2 38/31/2
f 46/42/2 42/47/2 36/17/2 40/43/2
f 42/47/2 41/48/2 35/13/2 36/17/2
f 20/22/2 19/24/2 41/48/2 42/47/2
f 26/30/2 23/29/2 43/46/2 44/45/2
f 29/36/2 33/23/2 46/42/2 45/41/2
f 30/49/2 10/50/2 48/9/2 50/40/2
o Plane.002
v -0.352201 0.000000 0.045505
v -0.942677 0.000000 0.045505
v -0.352201 0.000000 0.928161
v -0.942677 0.000000 0.928161
vn -0.0000 1.0000 -0.0000
vt -10.678802 5.145890
vt -10.678802 -4.632730
vt 11.247166 -4.632730
vt 11.247170 5.145890
s 0
usemtl pasto
f 54/51/3 53/52/3 51/53/3 52/54/3
o Plane.003
v -0.291604 -0.000000 -0.012283
v 0.966971 -0.000000 -0.012283
v -0.291604 -0.000000 -0.730859
v 0.966971 -0.000000 -0.730859
vn -0.0000 1.0000 -0.0000
vt -15.251863 14.272317
vt -15.251863 -12.900743
vt 16.476986 -12.900743
vt 16.476986 14.272317
s 0
usemtl Material.002
f 57/55/4 55/56/4 56/57/4 58/58/4
o Plane.004
v -1.015599 0.000000 0.130706
v -1.015599 0.000000 0.999987
v -1.015599 0.000000 0.045505
v -1.015599 -0.000000 -0.012283
v -1.015599 -0.000000 -0.463914
v -1.015599 0.000000 0.928161
v -1.245584 0.000000 0.130706
v -1.034606 0.000000 0.928161
v -1.264081 0.000000 0.045505
v -1.374661 -0.000000 -0.463914
v -1.276624 -0.000000 -0.012283
vn -0.0000 1.0000 -0.0000
vt 2.987743 -17.436953
vt 3.329477 -19.374037
vt 3.329477 -17.436953
vt 3.329477 4.069647
vt 3.329478 6.367453
vt 3.329477 7.925946
vt 3.329477 20.105997
vt -3.126242 20.105997
vt -1.363593 7.925946
vt -1.138078 6.367451
vt -0.805519 4.069647
s 0
usemtl pasto
f 66/59/5 60/60/5 64/61/5 59/62/5 61/63/5 62/64/5 63/65/5 68/66/5 69/67/5 67/68/5 65/69/5
o Plane.005
v -1.015599 0.000000 0.999987
v -1.499981 -0.000000 -0.463914
v -1.245584 0.000000 0.130706
v -1.034606 0.000000 0.928161
v -1.082111 0.000000 0.928161
v -1.063004 0.000000 0.999987
v -1.294163 0.000000 0.130706
v -1.264081 0.000000 0.045505
v -1.374661 -0.000000 -0.463914
v -1.276624 -0.000000 -0.012283
v -1.313226 0.000000 0.045505
v -1.427185 -0.000000 -0.463914
v -1.326160 -0.000000 -0.012283
v -1.417766 -0.000000 -0.421806
v -1.499981 -0.000000 -0.422300
vn -0.0000 1.0000 -0.0000
vt 4.697430 -25.655422
vt 5.199542 -28.486729
vt 6.445340 -28.486729
vt 5.945848 -25.655422
vt 0.401483 5.779389
vt -0.084597 9.137941
vt -0.414218 11.415892
vt -2.990568 29.218691
vt -4.370843 29.218691
vt -6.283877 29.218691
vt -6.283877 27.578300
vt -4.123318 27.558836
vt -1.716001 11.415892
vt -1.376110 9.137939
vt -0.875133 5.779392
s 0
usemtl acera
f 74/70/6 75/71/6 70/72/6 73/73/6 72/74/6 77/75/6 79/76/6 78/77/6 81/78/6 71/79/6 84/80/6 83/81/6 82/82/6 80/83/6 76/84/6
o Plane.006
v -0.352201 -0.000000 -0.012283
v -0.942677 -0.000000 -0.012283
v -0.352201 -0.000000 -0.666509
v -0.942677 -0.000000 -0.666509
vn -0.0000 1.0000 -0.0000
vt -4.214767 -6.807326
vt 4.783134 -6.807324
vt 4.783134 8.146725
vt -4.214767 8.146722
s 0
usemtl pasto
f 86/85/7 85/86/7 87/87/7 88/88/7
o Plane.007
v 1.499981 0.000000 0.130706
v -0.165242 0.000000 0.130706
v 1.499981 0.000000 0.045505
v -0.165242 0.000000 0.045505
v 1.037144 0.000000 0.130706
v 1.037144 0.000000 0.045505
v 0.966971 0.000000 0.130706
v 0.966971 0.000000 0.045505
vn -0.0000 1.0000 -0.0000
vt 6.691739 -0.575611
vt 14.163335 -0.575611
vt 14.163335 1.487505
vt 6.691739 1.487505
vt 5.558942 1.487505
vt -12.718419 1.487505
vt -12.718419 -0.575611
vt 5.558942 -0.575611
s 0
usemtl acera
f 93/89/8 89/90/8 91/91/8 94/92/8 96/93/8 92/94/8 90/95/8 95/96/8
o Plane.008
v 1.499981 -0.000000 -0.999987
v 1.499981 -0.000000 -0.948628
v 1.499981 -0.000000 -0.802530
v 1.499981 0.000000 0.045505
v 1.499981 -0.000000 -0.012283
v 1.037144 -0.000000 -0.999987
v 1.037144 -0.000000 -0.948628
v 1.037144 -0.000000 -0.802530
v 1.037144 0.000000 0.045505
v 1.037144 -0.000000 -0.012283
v 1.499981 -0.000000 -0.730859
v 1.037144 -0.000000 -0.730859
v 1.499981 -0.000000 -0.666509
v 1.037144 -0.000000 -0.666509
vn -0.0000 1.0000 -0.0000
vt 4.032763 10.240682
vt 4.032763 11.275959
vt -2.187044 11.275959
vt -2.187044 10.240682
vt -2.187044 7.295676
vt -2.187044 5.850960
vt -2.187044 4.553832
vt -2.187044 -8.633836
vt -2.187044 -9.798714
vt 4.032763 -9.798714
vt 4.032763 -8.633836
vt 4.032763 4.553834
vt 4.032763 5.850963
vt 4.032763 7.295677
s 0
usemtl nieve
f 98/97/9 97/98/9 102/99/9 103/100/9 104/101/9 108/102/9 110/103/9 106/104/9 105/105/9 100/106/9 101/107/9 109/108/9 107/109/9 99/110/9
o Plane.009
v -1.499981 -0.000000 -0.999987
v -0.165242 -0.000000 -0.999987
v -0.291604 -0.000000 -0.999987
v -0.352201 -0.000000 -0.999987
v -1.499981 -0.000000 -0.948628
v -1.499981 -0.000000 -0.802530
v -0.165242 -0.000000 -0.802530
v -0.291604 -0.000000 -0.802530
v -0.352201 -0.000000 -0.802530
v 1.037144 -0.000000 -0.999987
v 1.037144 -0.000000 -0.948628
v 1.037144 -0.000000 -0.802530
v 0.966971 -0.000000 -0.999987
v 0.966971 -0.000000 -0.802530
v -1.015599 -0.000000 -0.999987
v -0.942677 -0.000000 -0.999987
v -0.352201 -0.000000 -0.730859
v -1.499981 -0.000000 -0.730859
v -1.015599 -0.000000 -0.730859
v -0.942677 -0.000000 -0.730859
v -1.499981 -0.000000 -0.666509
v -1.015599 -0.000000 -0.463914
v -1.499981 -0.000000 -0.463914
v -1.015599 -0.000000 -0.666509
v -1.374661 -0.000000 -0.463914
v -1.427185 -0.000000 -0.463914
v -1.015599 -0.000000 -0.506766
v -1.499981 -0.000000 -0.508699
vn -0.0000 1.0000 -0.0000
vt 0.601172 1.949316
vt 0.260688 1.949316
vt 0.097410 1.949316
vt -1.493623 1.949316
vt -1.690111 1.949316
vt -2.995277 1.949316
vt -2.995277 1.741737
vt -2.995277 1.151243
vt -2.995277 0.861567
vt -2.995277 0.601485
vt -2.995277 -0.036343
vt -2.995277 -0.217356
vt -2.799128 -0.217356
vt -2.657604 -0.217356
vt -1.690111 -0.217356
vt -1.690111 -0.044155
vt -1.690111 0.601484
vt -1.690111 0.861567
vt -1.493623 0.861567
vt 0.097410 0.861567
vt 0.097410 1.151243
vt 0.260688 1.151243
vt 0.601172 1.151243
vt 3.651916 1.151243
vt 3.840996 1.151243
vt 3.840996 1.741736
vt 3.840996 1.949316
vt 3.651916 1.949316
s 0
usemtl Material.004
f 112/111/10 113/112/10 114/113/10 126/114/10 125/115/10 111/116/10 115/117/10 116/118/10 128/119/10 131/120/10 138/121/10 133/122/10 136/123/10 135/124/10 132/125/10 137/126/10 134/127/10 129/128/10 130/129/10 127/130/10 119/131/10 118/132/10 117/133/10 124/134/10 122/135/10 121/136/10 120/137/10 123/138/10
o Plane.010
v -0.291604 0.000000 0.999987
v -0.352201 0.000000 0.999987
v -0.291604 0.000000 0.928161
v -0.352201 0.000000 0.928161
vn -0.0000 1.0000 -0.0000
vt -0.116673 -0.206600
vt 0.651567 -0.206600
vt 0.651567 1.159302
vt -0.116669 1.159306
s 0
usemtl ENTRADA
f 140/139/11 139/140/11 141/141/11 142/142/11
o Plane.011
v -1.015599 0.000000 0.999987
v -0.942677 0.000000 0.999987
v -1.015599 0.000000 0.928161
v -0.942677 0.000000 0.928161
vn -0.0000 1.0000 -0.0000
vt 0.031034 -0.155012
vt 0.955533 -0.155008
vt 0.955533 1.210896
vt 0.031036 1.210896
s 0
usemtl SALIDA
f 143/143/12 144/144/12 146/145/12 145/146/12
