# 3ds Max Wavefront OBJ Exporter v0.99 - (c)2007 guruware
# File Created: 19.05.2024 17:20:24

mtllib WindowsTower.mtl

#
# object Box079
#

v  9.5000 4.5964 4.0000
v  9.5000 4.5964 -4.0000
v  10.5000 4.5964 -4.0000
v  10.5000 4.5964 4.0000
v  9.5000 5.5964 4.0000
v  10.5000 5.5964 4.0000
v  10.5000 5.5964 -4.0000
v  9.5000 5.5964 -4.0000
# 8 vertices

vn -0.5774 -0.5774 0.5774
vn -0.5774 -0.5774 -0.5774
vn 0.5774 -0.5774 -0.5774
vn 0.5774 -0.5774 0.5774
vn -0.5774 0.5774 0.5774
vn 0.5774 0.5774 0.5774
vn 0.5774 0.5774 -0.5774
vn -0.5774 0.5774 -0.5774
# 8 vertex normals

vt 1.0000 0.0000 0.0000
vt 1.0000 1.0000 0.0000
vt 0.0000 1.0000 0.0000
vt 0.0000 0.0000 0.0000
# 4 texture coords

o Box079
g Box079
usemtl 14___Default
s 2
f 1/1/1 2/2/2 3/3/3 4/4/4 
s 4
f 5/4/5 6/1/6 7/2/7 8/3/8 
s 8
f 1/4/1 4/1/4 6/2/6 5/3/5 
s 16
f 4/4/4 3/1/3 7/2/7 6/3/6 
s 32
f 3/4/3 2/1/2 8/2/8 7/3/7 
s 64
f 2/4/2 1/1/1 5/2/5 8/3/8 
# 6 polygons

#
# object Box080
#

v  9.5000 14.0509 4.0000
v  9.5000 14.0509 -4.0000
v  10.5000 14.0509 -4.0000
v  10.5000 14.0509 4.0000
v  9.5000 15.0509 4.0000
v  10.5000 15.0509 4.0000
v  10.5000 15.0509 -4.0000
v  9.5000 15.0509 -4.0000
# 8 vertices

vn -0.5774 -0.5774 0.5774
vn -0.5774 -0.5774 -0.5774
vn 0.5774 -0.5774 -0.5774
vn 0.5774 -0.5774 0.5774
vn -0.5774 0.5774 0.5774
vn 0.5774 0.5774 0.5774
vn 0.5774 0.5774 -0.5774
vn -0.5774 0.5774 -0.5774
# 8 vertex normals

vt 1.0000 0.0000 0.0000
vt 1.0000 1.0000 0.0000
vt 0.0000 1.0000 0.0000
vt 0.0000 0.0000 0.0000
# 4 texture coords

o Box080
g Box080
usemtl 14___Default
s 2
f 9/5/9 10/6/10 11/7/11 12/8/12 
s 4
f 13/8/13 14/5/14 15/6/15 16/7/16 
s 8
f 9/8/9 12/5/12 14/6/14 13/7/13 
s 16
f 12/8/12 11/5/11 15/6/15 14/7/14 
s 32
f 11/8/11 10/5/10 16/6/16 15/7/15 
s 64
f 10/8/10 9/5/9 13/6/13 16/7/16 
# 6 polygons

#
# object Box081
#

v  9.5000 5.5708 3.9552
v  9.5000 5.5708 2.9552
v  10.5000 5.5708 2.9552
v  10.5000 5.5708 3.9552
v  9.5000 14.0708 3.9552
v  10.5000 14.0708 3.9552
v  10.5000 14.0708 2.9552
v  9.5000 14.0708 2.9552
# 8 vertices

vn -0.5774 -0.5774 0.5774
vn -0.5774 -0.5774 -0.5774
vn 0.5774 -0.5774 -0.5774
vn 0.5774 -0.5774 0.5774
vn -0.5774 0.5774 0.5774
vn 0.5774 0.5774 0.5774
vn 0.5774 0.5774 -0.5774
vn -0.5774 0.5774 -0.5774
# 8 vertex normals

vt 1.0000 0.0000 0.0000
vt 1.0000 1.0000 0.0000
vt 0.0000 1.0000 0.0000
vt 0.0000 0.0000 0.0000
# 4 texture coords

o Box081
g Box081
usemtl 14___Default
s 2
f 17/9/17 18/10/18 19/11/19 20/12/20 
s 4
f 21/12/21 22/9/22 23/10/23 24/11/24 
s 8
f 17/12/17 20/9/20 22/10/22 21/11/21 
s 16
f 20/12/20 19/9/19 23/10/23 22/11/22 
s 32
f 19/12/19 18/9/18 24/10/24 23/11/23 
s 64
f 18/12/18 17/9/17 21/10/21 24/11/24 
# 6 polygons

#
# object Box082
#

v  9.5000 5.5708 -2.9550
v  9.5000 5.5708 -3.9550
v  10.5000 5.5708 -3.9550
v  10.5000 5.5708 -2.9550
v  9.5000 14.0708 -2.9550
v  10.5000 14.0708 -2.9550
v  10.5000 14.0708 -3.9550
v  9.5000 14.0708 -3.9550
# 8 vertices

vn -0.5774 -0.5774 0.5774
vn -0.5774 -0.5774 -0.5774
vn 0.5774 -0.5774 -0.5774
vn 0.5774 -0.5774 0.5774
vn -0.5774 0.5774 0.5774
vn 0.5774 0.5774 0.5774
vn 0.5774 0.5774 -0.5774
vn -0.5774 0.5774 -0.5774
# 8 vertex normals

vt 1.0000 0.0000 0.0000
vt 1.0000 1.0000 0.0000
vt 0.0000 1.0000 0.0000
vt 0.0000 0.0000 0.0000
# 4 texture coords

o Box082
g Box082
usemtl 14___Default
s 2
f 25/13/25 26/14/26 27/15/27 28/16/28 
s 4
f 29/16/29 30/13/30 31/14/31 32/15/32 
s 8
f 25/16/25 28/13/28 30/14/30 29/15/29 
s 16
f 28/16/28 27/13/27 31/14/31 30/15/30 
s 32
f 27/16/27 26/13/26 32/14/32 31/15/31 
s 64
f 26/16/26 25/13/25 29/14/29 32/15/32 
# 6 polygons

#
# object Box083
#

v  9.5000 5.5708 0.5000
v  9.5000 5.5708 -0.5000
v  10.5000 5.5708 -0.5000
v  10.5000 5.5708 0.5000
v  9.5000 14.0708 0.5000
v  10.5000 14.0708 0.5000
v  10.5000 14.0708 -0.5000
v  9.5000 14.0708 -0.5000
# 8 vertices

vn -0.5774 -0.5774 0.5774
vn -0.5774 -0.5774 -0.5774
vn 0.5774 -0.5774 -0.5774
vn 0.5774 -0.5774 0.5774
vn -0.5774 0.5774 0.5774
vn 0.5774 0.5774 0.5774
vn 0.5774 0.5774 -0.5774
vn -0.5774 0.5774 -0.5774
# 8 vertex normals

vt 1.0000 0.0000 0.0000
vt 1.0000 1.0000 0.0000
vt 0.0000 1.0000 0.0000
vt 0.0000 0.0000 0.0000
# 4 texture coords

o Box083
g Box083
usemtl 14___Default
s 2
f 33/17/33 34/18/34 35/19/35 36/20/36 
s 4
f 37/20/37 38/17/38 39/18/39 40/19/40 
s 8
f 33/20/33 36/17/36 38/18/38 37/19/37 
s 16
f 36/20/36 35/17/35 39/18/39 38/19/38 
s 32
f 35/20/35 34/17/34 40/18/40 39/19/39 
s 64
f 34/20/34 33/17/33 37/18/37 40/19/40 
# 6 polygons

#
# object Box084
#

v  9.5000 9.3064 4.0000
v  9.5000 9.3064 -4.0000
v  10.5000 9.3064 -4.0000
v  10.5000 9.3064 4.0000
v  9.5000 10.3064 4.0000
v  10.5000 10.3064 4.0000
v  10.5000 10.3064 -4.0000
v  9.5000 10.3064 -4.0000
# 8 vertices

vn -0.5774 -0.5774 0.5774
vn -0.5774 -0.5774 -0.5774
vn 0.5774 -0.5774 -0.5774
vn 0.5774 -0.5774 0.5774
vn -0.5774 0.5774 0.5774
vn 0.5774 0.5774 0.5774
vn 0.5774 0.5774 -0.5774
vn -0.5774 0.5774 -0.5774
# 8 vertex normals

vt 1.0000 0.0000 0.0000
vt 1.0000 1.0000 0.0000
vt 0.0000 1.0000 0.0000
vt 0.0000 0.0000 0.0000
# 4 texture coords

o Box084
g Box084
usemtl 14___Default
s 2
f 41/21/41 42/22/42 43/23/43 44/24/44 
s 4
f 45/24/45 46/21/46 47/22/47 48/23/48 
s 8
f 41/24/41 44/21/44 46/22/46 45/23/45 
s 16
f 44/24/44 43/21/43 47/22/47 46/23/46 
s 32
f 43/24/43 42/21/42 48/22/48 47/23/47 
s 64
f 42/24/42 41/21/41 45/22/45 48/23/48 
# 6 polygons

#
# object Box085
#

v  -9.4341 5.5708 -2.9550
v  -9.4341 5.5708 -3.9550
v  -10.4341 5.5708 -3.9550
v  -10.4341 5.5708 -2.9550
v  -9.4341 14.0708 -2.9550
v  -10.4341 14.0708 -2.9550
v  -10.4341 14.0708 -3.9550
v  -9.4341 14.0708 -3.9550
# 8 vertices

vn 0.5774 -0.5774 0.5774
vn 0.5774 -0.5774 -0.5774
vn -0.5774 -0.5774 -0.5774
vn -0.5774 -0.5774 0.5774
vn 0.5774 0.5774 0.5774
vn -0.5774 0.5774 0.5774
vn -0.5774 0.5774 -0.5774
vn 0.5774 0.5774 -0.5774
# 8 vertex normals

vt 1.0000 0.0000 0.0000
vt 1.0000 1.0000 0.0000
vt 0.0000 1.0000 0.0000
vt 0.0000 0.0000 0.0000
# 4 texture coords

o Box085
g Box085
usemtl 14___Default
s 2
f 52/28/52 51/27/51 50/26/50 49/25/49 
s 4
f 56/27/56 55/26/55 54/25/54 53/28/53 
s 8
f 53/27/53 54/26/54 52/25/52 49/28/49 
s 16
f 54/27/54 55/26/55 51/25/51 52/28/52 
s 32
f 55/27/55 56/26/56 50/25/50 51/28/51 
s 64
f 56/27/56 53/26/53 49/25/49 50/28/50 
# 6 polygons

#
# object Box086
#

v  -9.4341 4.5964 4.0000
v  -9.4341 4.5964 -4.0000
v  -10.4341 4.5964 -4.0000
v  -10.4341 4.5964 4.0000
v  -9.4341 5.5964 4.0000
v  -10.4341 5.5964 4.0000
v  -10.4341 5.5964 -4.0000
v  -9.4341 5.5964 -4.0000
# 8 vertices

vn 0.5774 -0.5774 0.5774
vn 0.5774 -0.5774 -0.5774
vn -0.5774 -0.5774 -0.5774
vn -0.5774 -0.5774 0.5774
vn 0.5774 0.5774 0.5774
vn -0.5774 0.5774 0.5774
vn -0.5774 0.5774 -0.5774
vn 0.5774 0.5774 -0.5774
# 8 vertex normals

vt 1.0000 0.0000 0.0000
vt 1.0000 1.0000 0.0000
vt 0.0000 1.0000 0.0000
vt 0.0000 0.0000 0.0000
# 4 texture coords

o Box086
g Box086
usemtl 14___Default
s 2
f 60/32/60 59/31/59 58/30/58 57/29/57 
s 4
f 64/31/64 63/30/63 62/29/62 61/32/61 
s 8
f 61/31/61 62/30/62 60/29/60 57/32/57 
s 16
f 62/31/62 63/30/63 59/29/59 60/32/60 
s 32
f 63/31/63 64/30/64 58/29/58 59/32/59 
s 64
f 64/31/64 61/30/61 57/29/57 58/32/58 
# 6 polygons

#
# object Box087
#

v  -9.4341 5.5708 3.9552
v  -9.4341 5.5708 2.9552
v  -10.4341 5.5708 2.9552
v  -10.4341 5.5708 3.9552
v  -9.4341 14.0708 3.9552
v  -10.4341 14.0708 3.9552
v  -10.4341 14.0708 2.9552
v  -9.4341 14.0708 2.9552
# 8 vertices

vn 0.5774 -0.5774 0.5774
vn 0.5774 -0.5774 -0.5774
vn -0.5774 -0.5774 -0.5774
vn -0.5774 -0.5774 0.5774
vn 0.5774 0.5774 0.5774
vn -0.5774 0.5774 0.5774
vn -0.5774 0.5774 -0.5774
vn 0.5774 0.5774 -0.5774
# 8 vertex normals

vt 1.0000 0.0000 0.0000
vt 1.0000 1.0000 0.0000
vt 0.0000 1.0000 0.0000
vt 0.0000 0.0000 0.0000
# 4 texture coords

o Box087
g Box087
usemtl 14___Default
s 2
f 68/36/68 67/35/67 66/34/66 65/33/65 
s 4
f 72/35/72 71/34/71 70/33/70 69/36/69 
s 8
f 69/35/69 70/34/70 68/33/68 65/36/65 
s 16
f 70/35/70 71/34/71 67/33/67 68/36/68 
s 32
f 71/35/71 72/34/72 66/33/66 67/36/67 
s 64
f 72/35/72 69/34/69 65/33/65 66/36/66 
# 6 polygons

#
# object Box088
#

v  -9.4341 5.5708 0.5000
v  -9.4341 5.5708 -0.5000
v  -10.4341 5.5708 -0.5000
v  -10.4341 5.5708 0.5000
v  -9.4341 14.0708 0.5000
v  -10.4341 14.0708 0.5000
v  -10.4341 14.0708 -0.5000
v  -9.4341 14.0708 -0.5000
# 8 vertices

vn 0.5774 -0.5774 0.5774
vn 0.5774 -0.5774 -0.5774
vn -0.5774 -0.5774 -0.5774
vn -0.5774 -0.5774 0.5774
vn 0.5774 0.5774 0.5774
vn -0.5774 0.5774 0.5774
vn -0.5774 0.5774 -0.5774
vn 0.5774 0.5774 -0.5774
# 8 vertex normals

vt 1.0000 0.0000 0.0000
vt 1.0000 1.0000 0.0000
vt 0.0000 1.0000 0.0000
vt 0.0000 0.0000 0.0000
# 4 texture coords

o Box088
g Box088
usemtl 14___Default
s 2
f 76/40/76 75/39/75 74/38/74 73/37/73 
s 4
f 80/39/80 79/38/79 78/37/78 77/40/77 
s 8
f 77/39/77 78/38/78 76/37/76 73/40/73 
s 16
f 78/39/78 79/38/79 75/37/75 76/40/76 
s 32
f 79/39/79 80/38/80 74/37/74 75/40/75 
s 64
f 80/39/80 77/38/77 73/37/73 74/40/74 
# 6 polygons

#
# object Box089
#

v  -9.4341 9.3064 4.0000
v  -9.4341 9.3064 -4.0000
v  -10.4341 9.3064 -4.0000
v  -10.4341 9.3064 4.0000
v  -9.4341 10.3064 4.0000
v  -10.4341 10.3064 4.0000
v  -10.4341 10.3064 -4.0000
v  -9.4341 10.3064 -4.0000
# 8 vertices

vn 0.5774 -0.5774 0.5774
vn 0.5774 -0.5774 -0.5774
vn -0.5774 -0.5774 -0.5774
vn -0.5774 -0.5774 0.5774
vn 0.5774 0.5774 0.5774
vn -0.5774 0.5774 0.5774
vn -0.5774 0.5774 -0.5774
vn 0.5774 0.5774 -0.5774
# 8 vertex normals

vt 1.0000 0.0000 0.0000
vt 1.0000 1.0000 0.0000
vt 0.0000 1.0000 0.0000
vt 0.0000 0.0000 0.0000
# 4 texture coords

o Box089
g Box089
usemtl 14___Default
s 2
f 84/44/84 83/43/83 82/42/82 81/41/81 
s 4
f 88/43/88 87/42/87 86/41/86 85/44/85 
s 8
f 85/43/85 86/42/86 84/41/84 81/44/81 
s 16
f 86/43/86 87/42/87 83/41/83 84/44/84 
s 32
f 87/43/87 88/42/88 82/41/82 83/44/83 
s 64
f 88/43/88 85/42/85 81/41/81 82/44/82 
# 6 polygons

#
# object Box090
#

v  -9.4341 14.0509 4.0000
v  -9.4341 14.0509 -4.0000
v  -10.4341 14.0509 -4.0000
v  -10.4341 14.0509 4.0000
v  -9.4341 15.0509 4.0000
v  -10.4341 15.0509 4.0000
v  -10.4341 15.0509 -4.0000
v  -9.4341 15.0509 -4.0000
# 8 vertices

vn 0.5774 -0.5774 0.5774
vn 0.5774 -0.5774 -0.5774
vn -0.5774 -0.5774 -0.5774
vn -0.5774 -0.5774 0.5774
vn 0.5774 0.5774 0.5774
vn -0.5774 0.5774 0.5774
vn -0.5774 0.5774 -0.5774
vn 0.5774 0.5774 -0.5774
# 8 vertex normals

vt 1.0000 0.0000 0.0000
vt 1.0000 1.0000 0.0000
vt 0.0000 1.0000 0.0000
vt 0.0000 0.0000 0.0000
# 4 texture coords

o Box090
g Box090
usemtl 14___Default
s 2
f 92/48/92 91/47/91 90/46/90 89/45/89 
s 4
f 96/47/96 95/46/95 94/45/94 93/48/93 
s 8
f 93/47/93 94/46/94 92/45/92 89/48/89 
s 16
f 94/47/94 95/46/95 91/45/91 92/48/92 
s 32
f 95/47/95 96/46/96 90/45/90 91/48/91 
s 64
f 96/47/96 93/46/93 89/45/89 90/48/90 
# 6 polygons

#
# object Box091
#

v  9.9500 5.4683 3.0433
v  9.9500 5.4683 -3.0433
v  10.0500 5.4683 -3.0433
v  10.0500 5.4683 3.0433
v  9.9500 14.3513 3.0433
v  10.0500 14.3513 3.0433
v  10.0500 14.3513 -3.0433
v  9.9500 14.3513 -3.0433
# 8 vertices

vn -0.5774 -0.5774 0.5774
vn -0.5774 -0.5774 -0.5774
vn 0.5774 -0.5774 -0.5774
vn 0.5774 -0.5774 0.5774
vn -0.5774 0.5774 0.5774
vn 0.5774 0.5774 0.5774
vn 0.5774 0.5774 -0.5774
vn -0.5774 0.5774 -0.5774
# 8 vertex normals

vt 1.0000 0.0000 0.0000
vt 1.0000 1.0000 0.0000
vt 0.0000 1.0000 0.0000
vt 0.0000 0.0000 0.0000
# 4 texture coords

o Box091
g Box091
usemtl 21___Default
s 2
f 97/49/97 98/50/98 99/51/99 100/52/100 
s 4
f 101/52/101 102/49/102 103/50/103 104/51/104 
s 8
f 97/52/97 100/49/100 102/50/102 101/51/101 
s 16
f 100/52/100 99/49/99 103/50/103 102/51/102 
s 32
f 99/52/99 98/49/98 104/50/104 103/51/103 
s 64
f 98/52/98 97/49/97 101/50/101 104/51/104 
# 6 polygons

#
# object Box092
#

v  -10.0500 5.4683 3.0433
v  -10.0500 5.4683 -3.0433
v  -9.9500 5.4683 -3.0433
v  -9.9500 5.4683 3.0433
v  -10.0500 14.3513 3.0433
v  -9.9500 14.3513 3.0433
v  -9.9500 14.3513 -3.0433
v  -10.0500 14.3513 -3.0433
# 8 vertices

vn -0.5774 -0.5774 0.5774
vn -0.5774 -0.5774 -0.5774
vn 0.5774 -0.5774 -0.5774
vn 0.5774 -0.5774 0.5774
vn -0.5774 0.5774 0.5774
vn 0.5774 0.5774 0.5774
vn 0.5774 0.5774 -0.5774
vn -0.5774 0.5774 -0.5774
# 8 vertex normals

vt 1.0000 0.0000 0.0000
vt 1.0000 1.0000 0.0000
vt 0.0000 1.0000 0.0000
vt 0.0000 0.0000 0.0000
# 4 texture coords

o Box092
g Box092
usemtl 21___Default
s 2
f 105/53/105 106/54/106 107/55/107 108/56/108 
s 4
f 109/56/109 110/53/110 111/54/111 112/55/112 
s 8
f 105/56/105 108/53/108 110/54/110 109/55/109 
s 16
f 108/56/108 107/53/107 111/54/111 110/55/110 
s 32
f 107/56/107 106/53/106 112/54/112 111/55/111 
s 64
f 106/56/106 105/53/105 109/54/109 112/55/112 
# 6 polygons

